<?xml version="1.0" encoding="UTF-8" standalone="no"?>
<!-- Created with Inkscape (http://www.inkscape.org/) -->

<svg
   xmlns:dc="http://purl.org/dc/elements/1.1/"
   xmlns:cc="http://creativecommons.org/ns#"
   xmlns:rdf="http://www.w3.org/1999/02/22-rdf-syntax-ns#"
   xmlns:svg="http://www.w3.org/2000/svg"
   xmlns="http://www.w3.org/2000/svg"
   xmlns:xlink="http://www.w3.org/1999/xlink"
   xmlns:sodipodi="http://sodipodi.sourceforge.net/DTD/sodipodi-0.dtd"
   xmlns:inkscape="http://www.inkscape.org/namespaces/inkscape"
   width="24"
   height="24"
   viewBox="0 0 6.3499998 6.3499998"
   version="1.1"
   id="svg8"
   inkscape:version="0.92.2 (5c3e80d, 2017-08-06)"
   sodipodi:docname="stock_folder-copy.svg">
  <defs
     id="defs2">
    <linearGradient
       inkscape:collect="always"
       xlink:href="#linearGradient10005"
       id="linearGradient2224"
       gradientUnits="userSpaceOnUse"
       x1="572"
       y1="-6.8130836"
       x2="572"
       y2="2.1187184" />
    <linearGradient
       inkscape:collect="always"
       id="linearGradient10005">
      <stop
         style="stop-color:#e3d0b5;stop-opacity:1"
         offset="0"
         id="stop10007" />
      <stop
         id="stop10009"
         offset="0.92004764"
         style="stop-color:#e5d3ba;stop-opacity:1" />
      <stop
         style="stop-color:#d3b58b;stop-opacity:1"
         offset="1"
         id="stop10011" />
    </linearGradient>
    <linearGradient
       inkscape:collect="always"
       xlink:href="#linearGradient8316"
       id="linearGradient2226"
       gradientUnits="userSpaceOnUse"
       x1="568.01355"
       y1="2.2283287"
       x2="568.01355"
       y2="-4.9999499" />
    <linearGradient
       inkscape:collect="always"
       id="linearGradient8316">
      <stop
         style="stop-color:#ffffff;stop-opacity:1;"
         offset="0"
         id="stop8318" />
      <stop
         style="stop-color:#ffffff;stop-opacity:0;"
         offset="1"
         id="stop8320" />
    </linearGradient>
    <radialGradient
       inkscape:collect="always"
       xlink:href="#linearGradient8316"
       id="radialGradient2228"
       gradientUnits="userSpaceOnUse"
       gradientTransform="matrix(2.8345188,0,0,0.64220385,-1042.8817,-2.3256749)"
       cx="566.83136"
       cy="-6.5"
       fx="566.83136"
       fy="-6.5"
       r="7.0071211" />
    <linearGradient
       inkscape:collect="always"
       xlink:href="#linearGradient10005"
       id="linearGradient888"
       gradientUnits="userSpaceOnUse"
       x1="572"
       y1="-6.8130836"
       x2="572"
       y2="2.1187184" />
    <linearGradient
       inkscape:collect="always"
       xlink:href="#linearGradient8316"
       id="linearGradient890"
       gradientUnits="userSpaceOnUse"
       x1="568.01355"
       y1="2.2283287"
       x2="568.01355"
       y2="-4.9999499" />
    <radialGradient
       inkscape:collect="always"
       xlink:href="#linearGradient8316"
       id="radialGradient892"
       gradientUnits="userSpaceOnUse"
       gradientTransform="matrix(2.8345188,0,0,0.64220385,-1042.8817,-2.3256749)"
       cx="566.83136"
       cy="-6.5"
       fx="566.83136"
       fy="-6.5"
       r="7.0071211" />
  </defs>
  <sodipodi:namedview
     id="base"
     pagecolor="#ffffff"
     bordercolor="#666666"
     borderopacity="1.0"
     inkscape:pageopacity="0.0"
     inkscape:pageshadow="2"
     inkscape:zoom="22.4"
     inkscape:cx="11.302953"
     inkscape:cy="14.082663"
     inkscape:document-units="mm"
     inkscape:current-layer="layer1"
     showgrid="true"
     units="px"
     inkscape:window-width="1920"
     inkscape:window-height="1029"
     inkscape:window-x="0"
     inkscape:window-y="27"
     inkscape:window-maximized="1">
    <inkscape:grid
       type="xygrid"
       id="grid815" />
  </sodipodi:namedview>
  <metadata
     id="metadata5">
    <rdf:RDF>
      <cc:Work
         rdf:about="">
        <dc:format>image/svg+xml</dc:format>
        <dc:type
           rdf:resource="http://purl.org/dc/dcmitype/StillImage" />
        <dc:title></dc:title>
      </cc:Work>
    </rdf:RDF>
  </metadata>
  <g
     inkscape:label="Layer 1"
     inkscape:groupmode="layer"
     id="layer1"
     transform="translate(0,-290.65)">
    <g
       transform="translate(-18.256247,0.79375001)"
       id="g886">
      <g
         transform="matrix(0.26458333,0,0,0.26458333,-129.64583,293.03125)"
         style="display:inline;enable-background:new"
         id="g876">
        <path
           inkscape:connector-curvature="0"
           style="color:#000000;clip-rule:nonzero;display:inline;overflow:visible;visibility:visible;opacity:1;isolation:auto;mix-blend-mode:normal;color-interpolation:sRGB;color-interpolation-filters:linearRGB;solid-color:#000000;solid-opacity:1;fill:#c3b08d;fill-opacity:1;fill-rule:evenodd;stroke:#bca780;stroke-width:1;stroke-linecap:butt;stroke-linejoin:round;stroke-miterlimit:4;stroke-dasharray:none;stroke-dashoffset:0;stroke-opacity:1;marker:none;color-rendering:auto;image-rendering:auto;shape-rendering:auto;text-rendering:auto;enable-background:accumulate"
           d="M 560.5,-9.375 V 0.5 h 15 v -7.84375 c -6e-5,-0.62129 -0.50371,-1.12494 -1.125,-1.125 h -5.84375 c -0.3334,0 -0.20853,0.0527 -0.40625,-0.21875 l -0.96875,-1.34375 c -0.2098,-0.29211 -0.54661,-0.46632 -0.90625,-0.46875 h -4.75 c -0.99615,0.0162 -1,1.125 -1,1.125 z"
           id="path870"
           sodipodi:nodetypes="ccccccccccc" />
        <path
           inkscape:connector-curvature="0"
           style="display:inline;opacity:0.072;fill:none;fill-opacity:0;stroke:#ffffff;stroke-width:1;stroke-linejoin:round;stroke-miterlimit:4;stroke-dasharray:none;stroke-opacity:1;enable-background:new"
           d="m 561.5,1 h 13 v -8.5 l -5.96875,-0.0312 c -0.0587,0 -0.0805,-10e-4 -0.15625,0 -0.0757,0.001 -0.29559,0.0325 -0.5625,-0.125 -0.26691,-0.15754 -0.34468,-0.32772 -0.375,-0.375 -0.0303,-0.0473 -0.0322,-0.0522 -0.0625,-0.0937 l -0.96875,-1.28057 c -0.0355,-0.0494 -0.0954,-0.0933 -0.15625,-0.0937 L 561.5,-9.5 Z"
           id="path872"
           sodipodi:nodetypes="ccccsssccccc" />
        <path
           style="opacity:0.17300002;fill:none;fill-rule:evenodd;stroke:#ffffff;stroke-width:1px;stroke-linecap:round;stroke-linejoin:miter;stroke-opacity:1"
           d="m 561.49288,-9.49995 h 5"
           id="path874"
           inkscape:connector-curvature="0" />
      </g>
      <g
         transform="matrix(0.26458333,0,0,0.26458333,-129.64583,293.03125)"
         style="display:inline;enable-background:new"
         id="g884">
        <path
           inkscape:connector-curvature="0"
           sodipodi:nodetypes="ccscccccccccc"
           id="path878"
           d="m 566.92188,-8.5 c -0.34915,0 -0.55954,0.2095926 -0.73438,0.34375 l -1.45228,1.47457 C 564.60566,-6.5501267 564.49257,-6.5 564.1875,-6.5 h -2.5625 c -0.65057,0 -1.12499,0.433425 -1.125,1.078125 V 1 c 0,1.33755 0.68182,2.5 1.5,2.5 h 12 c 0.81819,0 1.5,-1.16245 1.5,-2.5 v -8.5 c -0.0156,-0.96881 -1,-1 -1,-1 z"
           style="color:#000000;clip-rule:nonzero;display:inline;overflow:visible;visibility:visible;opacity:1;isolation:auto;mix-blend-mode:normal;color-interpolation:sRGB;color-interpolation-filters:linearRGB;solid-color:#000000;solid-opacity:1;fill:url(#linearGradient888);fill-opacity:1;fill-rule:nonzero;stroke:#beab8b;stroke-width:1;stroke-linecap:butt;stroke-linejoin:miter;stroke-miterlimit:4;stroke-dasharray:none;stroke-dashoffset:0;stroke-opacity:1;marker:none;color-rendering:auto;image-rendering:auto;shape-rendering:auto;text-rendering:auto;enable-background:new" />
        <path
           sodipodi:type="inkscape:offset"
           inkscape:radius="-1"
           inkscape:original="M 566.92188 -8.5 C 566.57272 -8.5 566.36234 -8.29041 566.1875 -8.15625 L 564.73438 -6.6816406 C 564.60481 -6.5500906 564.49257 -6.5 564.1875 -6.5 L 561.625 -6.5 C 560.97443 -6.5 560.50001 -6.066575 560.5 -5.421875 L 560.5 1 C 560.5 2.33755 561.18182 3.5 562 3.5 L 574 3.5 C 574.81819 3.5 575.5 2.33755 575.5 1 L 575.5 -7.5 C 575.4844 -8.46881 574.5 -8.5 574.5 -8.5 L 566.92188 -8.5 z "
           style="color:#000000;clip-rule:nonzero;display:inline;overflow:visible;visibility:visible;opacity:0.32400004;isolation:auto;mix-blend-mode:normal;color-interpolation:sRGB;color-interpolation-filters:linearRGB;solid-color:#000000;solid-opacity:1;fill:none;fill-opacity:1;fill-rule:nonzero;stroke:url(#linearGradient890);stroke-width:1;stroke-linecap:butt;stroke-linejoin:round;stroke-miterlimit:4;stroke-dasharray:none;stroke-dashoffset:0;stroke-opacity:1;marker:none;color-rendering:auto;image-rendering:auto;shape-rendering:auto;text-rendering:auto;enable-background:new"
           id="path880"
           d="m 566.92188,-7.5 c 0.051,0 0.14153,-0.067801 -0.125,0.1367188 l 0.10351,-0.091797 -1.45312,1.4746093 c -0.12156,0.1234147 -0.34139,0.2961474 -0.58789,0.3828126 C 564.61287,-5.5109911 564.39477,-5.5 564.1875,-5.5 h -2.5625 c -0.20642,0 -0.125,-0.075997 -0.125,0.078125 V 1 c 0,0.4988574 0.14105,0.9688306 0.30273,1.2402344 C 561.96442,2.5116381 562.0645,2.5 562,2.5 h 12 c -0.0645,0 0.0356,0.011637 0.19727,-0.2597656 C 574.35895,1.968832 574.5,1.4988599 574.5,1 v -8.484375 c -0.002,-0.1460121 0.0557,0.019531 0.0332,0.00781 -0.0116,-0.00602 -0.0196,-0.007 -0.0332,-0.011719 -0.0128,-0.00447 -0.0312,-0.011719 -0.0312,-0.011719 z" />
        <path
           style="opacity:0.67099998;fill:none;fill-rule:evenodd;stroke:url(#radialGradient892);stroke-width:1px;stroke-linecap:round;stroke-linejoin:round;stroke-opacity:1"
           d="m 574.5,-7.5 h -7.52072 l -2.00555,2 H 561.5"
           id="path882"
           inkscape:connector-curvature="0"
           sodipodi:nodetypes="cccc" />
      </g>
    </g>
    <g
       id="g868"
       transform="translate(-16.668747,2.6458333)">
      <g
         id="g8715"
         style="display:inline;enable-background:new"
         transform="matrix(0.26458333,0,0,0.26458333,-129.64583,293.03125)">
        <path
           sodipodi:nodetypes="ccccccccccc"
           id="path11539"
           d="M 560.5,-9.375 V 0.5 h 15 v -7.84375 c -6e-5,-0.62129 -0.50371,-1.12494 -1.125,-1.125 h -5.84375 c -0.3334,0 -0.20853,0.0527 -0.40625,-0.21875 l -0.96875,-1.34375 c -0.2098,-0.29211 -0.54661,-0.46632 -0.90625,-0.46875 h -4.75 c -0.99615,0.0162 -1,1.125 -1,1.125 z"
           style="color:#000000;clip-rule:nonzero;display:inline;overflow:visible;visibility:visible;opacity:1;isolation:auto;mix-blend-mode:normal;color-interpolation:sRGB;color-interpolation-filters:linearRGB;solid-color:#000000;solid-opacity:1;fill:#c3b08d;fill-opacity:1;fill-rule:evenodd;stroke:#bca780;stroke-width:1;stroke-linecap:butt;stroke-linejoin:round;stroke-miterlimit:4;stroke-dasharray:none;stroke-dashoffset:0;stroke-opacity:1;marker:none;color-rendering:auto;image-rendering:auto;shape-rendering:auto;text-rendering:auto;enable-background:accumulate"
           inkscape:connector-curvature="0" />
        <path
           sodipodi:nodetypes="ccccsssccccc"
           id="path11541"
           d="m 561.5,1 h 13 v -8.5 l -5.96875,-0.0312 c -0.0587,0 -0.0805,-10e-4 -0.15625,0 -0.0757,0.001 -0.29559,0.0325 -0.5625,-0.125 -0.26691,-0.15754 -0.34468,-0.32772 -0.375,-0.375 -0.0303,-0.0473 -0.0322,-0.0522 -0.0625,-0.0937 l -0.96875,-1.28057 c -0.0355,-0.0494 -0.0954,-0.0933 -0.15625,-0.0937 L 561.5,-9.5 Z"
           style="display:inline;opacity:0.072;fill:none;fill-opacity:0;stroke:#ffffff;stroke-width:1;stroke-linejoin:round;stroke-miterlimit:4;stroke-dasharray:none;stroke-opacity:1;enable-background:new"
           inkscape:connector-curvature="0" />
        <path
           inkscape:connector-curvature="0"
           id="path8086"
           d="m 561.49288,-9.49995 h 5"
           style="opacity:0.17300002;fill:none;fill-rule:evenodd;stroke:#ffffff;stroke-width:1px;stroke-linecap:round;stroke-linejoin:miter;stroke-opacity:1" />
      </g>
      <g
         id="g8720"
         style="display:inline;enable-background:new"
         transform="matrix(0.26458333,0,0,0.26458333,-129.64583,293.03125)">
        <path
           style="color:#000000;clip-rule:nonzero;display:inline;overflow:visible;visibility:visible;opacity:1;isolation:auto;mix-blend-mode:normal;color-interpolation:sRGB;color-interpolation-filters:linearRGB;solid-color:#000000;solid-opacity:1;fill:url(#linearGradient2224);fill-opacity:1;fill-rule:nonzero;stroke:#beab8b;stroke-width:1;stroke-linecap:butt;stroke-linejoin:miter;stroke-miterlimit:4;stroke-dasharray:none;stroke-dashoffset:0;stroke-opacity:1;marker:none;color-rendering:auto;image-rendering:auto;shape-rendering:auto;text-rendering:auto;enable-background:new"
           d="m 566.92188,-8.5 c -0.34915,0 -0.55954,0.2095926 -0.73438,0.34375 l -1.45228,1.47457 C 564.60566,-6.5501267 564.49257,-6.5 564.1875,-6.5 h -2.5625 c -0.65057,0 -1.12499,0.433425 -1.125,1.078125 V 1 c 0,1.33755 0.68182,2.5 1.5,2.5 h 12 c 0.81819,0 1.5,-1.16245 1.5,-2.5 v -8.5 c -0.0156,-0.96881 -1,-1 -1,-1 z"
           id="path11543"
           sodipodi:nodetypes="ccscccccccccc"
           inkscape:connector-curvature="0" />
        <path
           d="m 566.92188,-7.5 c 0.051,0 0.14153,-0.067801 -0.125,0.1367188 l 0.10351,-0.091797 -1.45312,1.4746093 c -0.12156,0.1234147 -0.34139,0.2961474 -0.58789,0.3828126 C 564.61287,-5.5109911 564.39477,-5.5 564.1875,-5.5 h -2.5625 c -0.20642,0 -0.125,-0.075997 -0.125,0.078125 V 1 c 0,0.4988574 0.14105,0.9688306 0.30273,1.2402344 C 561.96442,2.5116381 562.0645,2.5 562,2.5 h 12 c -0.0645,0 0.0356,0.011637 0.19727,-0.2597656 C 574.35895,1.968832 574.5,1.4988599 574.5,1 v -8.484375 c -0.002,-0.1460121 0.0557,0.019531 0.0332,0.00781 -0.0116,-0.00602 -0.0196,-0.007 -0.0332,-0.011719 -0.0128,-0.00447 -0.0312,-0.011719 -0.0312,-0.011719 z"
           id="path8314"
           style="color:#000000;clip-rule:nonzero;display:inline;overflow:visible;visibility:visible;opacity:0.32400004;isolation:auto;mix-blend-mode:normal;color-interpolation:sRGB;color-interpolation-filters:linearRGB;solid-color:#000000;solid-opacity:1;fill:none;fill-opacity:1;fill-rule:nonzero;stroke:url(#linearGradient2226);stroke-width:1;stroke-linecap:butt;stroke-linejoin:round;stroke-miterlimit:4;stroke-dasharray:none;stroke-dashoffset:0;stroke-opacity:1;marker:none;color-rendering:auto;image-rendering:auto;shape-rendering:auto;text-rendering:auto;enable-background:new"
           inkscape:original="M 566.92188 -8.5 C 566.57272 -8.5 566.36234 -8.29041 566.1875 -8.15625 L 564.73438 -6.6816406 C 564.60481 -6.5500906 564.49257 -6.5 564.1875 -6.5 L 561.625 -6.5 C 560.97443 -6.5 560.50001 -6.066575 560.5 -5.421875 L 560.5 1 C 560.5 2.33755 561.18182 3.5 562 3.5 L 574 3.5 C 574.81819 3.5 575.5 2.33755 575.5 1 L 575.5 -7.5 C 575.4844 -8.46881 574.5 -8.5 574.5 -8.5 L 566.92188 -8.5 z "
           inkscape:radius="-1"
           sodipodi:type="inkscape:offset" />
        <path
           sodipodi:nodetypes="cccc"
           inkscape:connector-curvature="0"
           id="path11571"
           d="m 574.5,-7.5 h -7.52072 l -2.00555,2 H 561.5"
           style="opacity:0.67099998;fill:none;fill-rule:evenodd;stroke:url(#radialGradient2228);stroke-width:1px;stroke-linecap:round;stroke-linejoin:round;stroke-opacity:1" />
      </g>
    </g>
  </g>
</svg>
