<?xml version="1.0" encoding="UTF-8" standalone="no"?>
<!-- Created with Inkscape (http://www.inkscape.org/) -->

<svg
   xmlns:dc="http://purl.org/dc/elements/1.1/"
   xmlns:cc="http://creativecommons.org/ns#"
   xmlns:rdf="http://www.w3.org/1999/02/22-rdf-syntax-ns#"
   xmlns:svg="http://www.w3.org/2000/svg"
   xmlns="http://www.w3.org/2000/svg"
   xmlns:xlink="http://www.w3.org/1999/xlink"
   xmlns:sodipodi="http://sodipodi.sourceforge.net/DTD/sodipodi-0.dtd"
   xmlns:inkscape="http://www.inkscape.org/namespaces/inkscape"
   width="16"
   height="16"
   viewBox="0 0 4.2333332 4.2333332"
   version="1.1"
   id="svg8"
   inkscape:version="0.92.2 (5c3e80d, 2017-08-06)"
   sodipodi:docname="stock_folder-copy.svg">
  <defs
     id="defs2">
    <linearGradient
       inkscape:collect="always"
       xlink:href="#linearGradient10005"
       id="linearGradient2224"
       gradientUnits="userSpaceOnUse"
       x1="572"
       y1="-6.8130836"
       x2="572"
       y2="2.1187184" />
    <linearGradient
       inkscape:collect="always"
       id="linearGradient10005">
      <stop
         style="stop-color:#e3d0b5;stop-opacity:1"
         offset="0"
         id="stop10007" />
      <stop
         id="stop10009"
         offset="0.92004764"
         style="stop-color:#e5d3ba;stop-opacity:1" />
      <stop
         style="stop-color:#d3b58b;stop-opacity:1"
         offset="1"
         id="stop10011" />
    </linearGradient>
    <linearGradient
       inkscape:collect="always"
       xlink:href="#linearGradient8316"
       id="linearGradient2226"
       gradientUnits="userSpaceOnUse"
       x1="568.01355"
       y1="2.2283287"
       x2="568.01355"
       y2="-4.9999499" />
    <linearGradient
       inkscape:collect="always"
       id="linearGradient8316">
      <stop
         style="stop-color:#ffffff;stop-opacity:1;"
         offset="0"
         id="stop8318" />
      <stop
         style="stop-color:#ffffff;stop-opacity:0;"
         offset="1"
         id="stop8320" />
    </linearGradient>
    <radialGradient
       inkscape:collect="always"
       xlink:href="#linearGradient8316"
       id="radialGradient2228"
       gradientUnits="userSpaceOnUse"
       gradientTransform="matrix(2.8345188,0,0,0.64220385,-1042.8817,-2.3256749)"
       cx="566.83136"
       cy="-6.5"
       fx="566.83136"
       fy="-6.5"
       r="7.0071211" />
    <linearGradient
       inkscape:collect="always"
       xlink:href="#linearGradient10005"
       id="linearGradient993"
       gradientUnits="userSpaceOnUse"
       x1="572"
       y1="-6.8130836"
       x2="572"
       y2="2.1187184" />
    <linearGradient
       inkscape:collect="always"
       xlink:href="#linearGradient8316"
       id="linearGradient995"
       gradientUnits="userSpaceOnUse"
       x1="568.01355"
       y1="2.2283287"
       x2="568.01355"
       y2="-4.9999499" />
    <radialGradient
       inkscape:collect="always"
       xlink:href="#linearGradient8316"
       id="radialGradient997"
       gradientUnits="userSpaceOnUse"
       gradientTransform="matrix(2.8345188,0,0,0.64220385,-1042.8817,-2.3256749)"
       cx="566.83136"
       cy="-6.5"
       fx="566.83136"
       fy="-6.5"
       r="7.0071211" />
  </defs>
  <sodipodi:namedview
     id="base"
     pagecolor="#ffffff"
     bordercolor="#666666"
     borderopacity="1.0"
     inkscape:pageopacity="0.0"
     inkscape:pageshadow="2"
     inkscape:zoom="22.4"
     inkscape:cx="3.4011673"
     inkscape:cy="12.098214"
     inkscape:document-units="mm"
     inkscape:current-layer="layer1"
     showgrid="true"
     units="px"
     inkscape:window-width="1920"
     inkscape:window-height="1029"
     inkscape:window-x="0"
     inkscape:window-y="27"
     inkscape:window-maximized="1">
    <inkscape:grid
       type="xygrid"
       id="grid815" />
  </sodipodi:namedview>
  <metadata
     id="metadata5">
    <rdf:RDF>
      <cc:Work
         rdf:about="">
        <dc:format>image/svg+xml</dc:format>
        <dc:type
           rdf:resource="http://purl.org/dc/dcmitype/StillImage" />
        <dc:title></dc:title>
      </cc:Work>
    </rdf:RDF>
  </metadata>
  <g
     inkscape:label="Layer 1"
     inkscape:groupmode="layer"
     id="layer1"
     transform="translate(0,-292.76667)">
    <g
       transform="translate(-0.52916674,-1.0583333)"
       id="g991">
      <g
         id="g989"
         transform="translate(-17.991664,3.4395833)">
        <g
           id="g979"
           style="display:inline;enable-background:new"
           transform="matrix(0.26458333,0,0,0.26458333,-129.64583,293.03125)">
          <path
             sodipodi:nodetypes="ccccccccccc"
             id="path973"
             d="m 560.5,-8.3754874 v 6.8755001 h 11.00048 V -7.34375 c -6e-5,-0.62129 -0.50371,-1.12494 -1.125,-1.125 h -2.84387 c -0.3334,0 -0.20853,0.0527 -0.40625,-0.21875 l -0.96875,-0.3442374 c -0.2098,-0.29211 -0.54661,-0.46632 -0.90625,-0.46875 H 561.5 c -0.99615,0.0162 -1,1.125 -1,1.125 z"
             style="color:#000000;clip-rule:nonzero;display:inline;overflow:visible;visibility:visible;opacity:1;isolation:auto;mix-blend-mode:normal;color-interpolation:sRGB;color-interpolation-filters:linearRGB;solid-color:#000000;solid-opacity:1;fill:#c3b08d;fill-opacity:1;fill-rule:evenodd;stroke:#bca780;stroke-width:1;stroke-linecap:butt;stroke-linejoin:round;stroke-miterlimit:4;stroke-dasharray:none;stroke-dashoffset:0;stroke-opacity:1;marker:none;color-rendering:auto;image-rendering:auto;shape-rendering:auto;text-rendering:auto;enable-background:accumulate"
             inkscape:connector-curvature="0" />
          <path
             sodipodi:nodetypes="ccccsssccccc"
             id="path975"
             d="m 561.5,1.272441e-5 h 8.99998 V -7.5 l -1.96873,-0.0312 c -0.0587,0 -0.0805,-10e-4 -0.15625,0 -0.0757,0.001 -0.29559,0.0325 -0.5625,-0.125 -0.26691,-0.15754 -0.34468,-0.32772 -0.375,-0.375 -0.0303,-0.0473 -0.0322,-0.0522 -0.0625,-0.0937 l -0.96875,-0.2808224 c -0.0355,-0.0494 -0.0954,-0.0933 -0.15625,-0.0937 l -4.75,-8.3e-4 z"
             style="display:inline;opacity:0.072;fill:none;fill-opacity:0;stroke:#ffffff;stroke-width:1;stroke-linejoin:round;stroke-miterlimit:4;stroke-dasharray:none;stroke-opacity:1;enable-background:new"
             inkscape:connector-curvature="0" />
          <path
             sodipodi:nodetypes="cc"
             inkscape:connector-curvature="0"
             id="path977"
             d="m 561.49288,-8.4999874 h 4.0001"
             style="opacity:0.17300002;fill:none;fill-rule:evenodd;stroke:#ffffff;stroke-width:1px;stroke-linecap:round;stroke-linejoin:miter;stroke-opacity:1" />
        </g>
        <g
           id="g987"
           style="display:inline;enable-background:new"
           transform="matrix(0.26458333,0,0,0.26458333,-129.64583,293.03125)">
          <path
             style="color:#000000;clip-rule:nonzero;display:inline;overflow:visible;visibility:visible;opacity:1;isolation:auto;mix-blend-mode:normal;color-interpolation:sRGB;color-interpolation-filters:linearRGB;solid-color:#000000;solid-opacity:1;fill:url(#linearGradient993);fill-opacity:1;fill-rule:nonzero;stroke:#beab8b;stroke-width:1;stroke-linecap:butt;stroke-linejoin:miter;stroke-miterlimit:4;stroke-dasharray:none;stroke-dashoffset:0;stroke-opacity:1;marker:none;color-rendering:auto;image-rendering:auto;shape-rendering:auto;text-rendering:auto;enable-background:new"
             d="m 566.92188,-8.5 c -0.34915,0 -0.55954,0.2095926 -0.73438,0.34375 l -1.45228,0.4743601 c -0.17551,0.057329 -0.24265,0.18168 -0.54772,0.18168 h -2.5625 c -0.65057,0 -1.12499,0.433425 -1.125,1.078125 l -10e-6,4.5220976 c 0,1.33755002 0.68182,2.40000001 1.5,2.40000001 h 7.99998 c 0.81819,0 1.5,-1.06244999 1.5,-2.40000001 L 571.49998,-7.5 c -0.0156,-0.96881 -1,-1 -1,-1 z"
             id="path981"
             sodipodi:nodetypes="ccscccccccccc"
             inkscape:connector-curvature="0" />
          <path
             style="color:#000000;clip-rule:nonzero;display:inline;overflow:visible;visibility:visible;opacity:0.32400004;isolation:auto;mix-blend-mode:normal;color-interpolation:sRGB;color-interpolation-filters:linearRGB;solid-color:#000000;solid-opacity:1;fill:none;fill-opacity:1;fill-rule:nonzero;stroke:url(#linearGradient995);stroke-width:1;stroke-linecap:butt;stroke-linejoin:round;stroke-miterlimit:4;stroke-dasharray:none;stroke-dashoffset:0;stroke-opacity:1;marker:none;color-rendering:auto;image-rendering:auto;shape-rendering:auto;text-rendering:auto;enable-background:new"
             d="m 566.92188,-7.5 c 0.051,0 0.14153,-0.067801 -0.125,0.1367188 l 0.10351,-0.091797 -1.45312,1.4746093 c -0.12156,0.1234147 -0.34139,0.2961474 -0.58789,0.3828126 C 564.61287,-5.5109911 564.39477,-5.5 564.1875,-5.5 h -2.5625 c -0.20642,0 -0.125,-0.075997 -0.125,0.078125 v 3.4218877 c 0,0.4988574 0.14105,0.9688306 0.30273,1.24023441 0.16169,0.2714037 0.26177,0.2597656 0.19727,0.2597656 h 8.00038 c -0.0645,0 0.0356,0.011637 0.19727,-0.2597656 0.16168,-0.27140241 0.30273,-0.74137451 0.30273,-1.24023441 V -7.484375 c -0.002,-0.1460121 0.0557,0.019531 0.0332,0.00781 -0.0116,-0.00602 -0.0196,-0.007 -0.0332,-0.011719 -0.0128,-0.00447 -0.0312,-0.011719 -0.0312,-0.011719 z"
             id="path983"
             inkscape:connector-curvature="0"
             sodipodi:nodetypes="cccccssssccccsccccc" />
          <path
             sodipodi:nodetypes="cccc"
             inkscape:connector-curvature="0"
             id="path985"
             d="m 570.49998,-7.5 h -3.5207 l -2.00555,1.0000126 H 561.5"
             style="opacity:0.67099998;fill:none;fill-rule:evenodd;stroke:url(#radialGradient997);stroke-width:1px;stroke-linecap:round;stroke-linejoin:round;stroke-opacity:1" />
        </g>
      </g>
    </g>
    <g
       id="g919"
       transform="translate(0.52916659,0.26458334)">
      <g
         transform="translate(-17.991664,3.4395833)"
         id="g868">
        <g
           transform="matrix(0.26458333,0,0,0.26458333,-129.64583,293.03125)"
           style="display:inline;enable-background:new"
           id="g8715">
          <path
             inkscape:connector-curvature="0"
             style="color:#000000;clip-rule:nonzero;display:inline;overflow:visible;visibility:visible;opacity:1;isolation:auto;mix-blend-mode:normal;color-interpolation:sRGB;color-interpolation-filters:linearRGB;solid-color:#000000;solid-opacity:1;fill:#c3b08d;fill-opacity:1;fill-rule:evenodd;stroke:#bca780;stroke-width:1;stroke-linecap:butt;stroke-linejoin:round;stroke-miterlimit:4;stroke-dasharray:none;stroke-dashoffset:0;stroke-opacity:1;marker:none;color-rendering:auto;image-rendering:auto;shape-rendering:auto;text-rendering:auto;enable-background:accumulate"
             d="m 560.5,-8.3754874 v 6.8755001 h 11.00048 V -7.34375 c -6e-5,-0.62129 -0.50371,-1.12494 -1.125,-1.125 h -2.84387 c -0.3334,0 -0.20853,0.0527 -0.40625,-0.21875 l -0.96875,-0.3442374 c -0.2098,-0.29211 -0.54661,-0.46632 -0.90625,-0.46875 H 561.5 c -0.99615,0.0162 -1,1.125 -1,1.125 z"
             id="path11539"
             sodipodi:nodetypes="ccccccccccc" />
          <path
             inkscape:connector-curvature="0"
             style="display:inline;opacity:0.072;fill:none;fill-opacity:0;stroke:#ffffff;stroke-width:1;stroke-linejoin:round;stroke-miterlimit:4;stroke-dasharray:none;stroke-opacity:1;enable-background:new"
             d="m 561.5,1.272441e-5 h 8.99998 V -7.5 l -1.96873,-0.0312 c -0.0587,0 -0.0805,-10e-4 -0.15625,0 -0.0757,0.001 -0.29559,0.0325 -0.5625,-0.125 -0.26691,-0.15754 -0.34468,-0.32772 -0.375,-0.375 -0.0303,-0.0473 -0.0322,-0.0522 -0.0625,-0.0937 l -0.96875,-0.2808224 c -0.0355,-0.0494 -0.0954,-0.0933 -0.15625,-0.0937 l -4.75,-8.3e-4 z"
             id="path11541"
             sodipodi:nodetypes="ccccsssccccc" />
          <path
             style="opacity:0.17300002;fill:none;fill-rule:evenodd;stroke:#ffffff;stroke-width:1px;stroke-linecap:round;stroke-linejoin:miter;stroke-opacity:1"
             d="m 561.49288,-8.4999874 h 4.0001"
             id="path8086"
             inkscape:connector-curvature="0"
             sodipodi:nodetypes="cc" />
        </g>
        <g
           transform="matrix(0.26458333,0,0,0.26458333,-129.64583,293.03125)"
           style="display:inline;enable-background:new"
           id="g8720">
          <path
             inkscape:connector-curvature="0"
             sodipodi:nodetypes="ccscccccccccc"
             id="path11543"
             d="m 566.92188,-8.5 c -0.34915,0 -0.55954,0.2095926 -0.73438,0.34375 l -1.45228,0.4743601 c -0.17551,0.057329 -0.24265,0.18168 -0.54772,0.18168 h -2.5625 c -0.65057,0 -1.12499,0.433425 -1.125,1.078125 l -10e-6,4.5220976 c 0,1.33755002 0.68182,2.40000001 1.5,2.40000001 h 7.99998 c 0.81819,0 1.5,-1.06244999 1.5,-2.40000001 L 571.49998,-7.5 c -0.0156,-0.96881 -1,-1 -1,-1 z"
             style="color:#000000;clip-rule:nonzero;display:inline;overflow:visible;visibility:visible;opacity:1;isolation:auto;mix-blend-mode:normal;color-interpolation:sRGB;color-interpolation-filters:linearRGB;solid-color:#000000;solid-opacity:1;fill:url(#linearGradient2224);fill-opacity:1;fill-rule:nonzero;stroke:#beab8b;stroke-width:1;stroke-linecap:butt;stroke-linejoin:miter;stroke-miterlimit:4;stroke-dasharray:none;stroke-dashoffset:0;stroke-opacity:1;marker:none;color-rendering:auto;image-rendering:auto;shape-rendering:auto;text-rendering:auto;enable-background:new" />
          <path
             sodipodi:nodetypes="cccccssssccccsccccc"
             inkscape:connector-curvature="0"
             id="path8314"
             d="m 566.92188,-7.5 c 0.051,0 0.14153,-0.067801 -0.125,0.1367188 l 0.10351,-0.091797 -1.45312,1.4746093 c -0.12156,0.1234147 -0.34139,0.2961474 -0.58789,0.3828126 C 564.61287,-5.5109911 564.39477,-5.5 564.1875,-5.5 h -2.5625 c -0.20642,0 -0.125,-0.075997 -0.125,0.078125 v 3.4218877 c 0,0.4988574 0.14105,0.9688306 0.30273,1.24023441 0.16169,0.2714037 0.26177,0.2597656 0.19727,0.2597656 h 8.00038 c -0.0645,0 0.0356,0.011637 0.19727,-0.2597656 0.16168,-0.27140241 0.30273,-0.74137451 0.30273,-1.24023441 V -7.484375 c -0.002,-0.1460121 0.0557,0.019531 0.0332,0.00781 -0.0116,-0.00602 -0.0196,-0.007 -0.0332,-0.011719 -0.0128,-0.00447 -0.0312,-0.011719 -0.0312,-0.011719 z"
             style="color:#000000;clip-rule:nonzero;display:inline;overflow:visible;visibility:visible;opacity:0.32400004;isolation:auto;mix-blend-mode:normal;color-interpolation:sRGB;color-interpolation-filters:linearRGB;solid-color:#000000;solid-opacity:1;fill:none;fill-opacity:1;fill-rule:nonzero;stroke:url(#linearGradient2226);stroke-width:1;stroke-linecap:butt;stroke-linejoin:round;stroke-miterlimit:4;stroke-dasharray:none;stroke-dashoffset:0;stroke-opacity:1;marker:none;color-rendering:auto;image-rendering:auto;shape-rendering:auto;text-rendering:auto;enable-background:new" />
          <path
             style="opacity:0.67099998;fill:none;fill-rule:evenodd;stroke:url(#radialGradient2228);stroke-width:1px;stroke-linecap:round;stroke-linejoin:round;stroke-opacity:1"
             d="m 570.49998,-7.5 h -3.5207 l -2.00555,1.0000126 H 561.5"
             id="path11571"
             inkscape:connector-curvature="0"
             sodipodi:nodetypes="cccc" />
        </g>
      </g>
    </g>
  </g>
</svg>
