<?xml version="1.0" encoding="UTF-8" standalone="no"?>
<svg
   xmlns:dc="http://purl.org/dc/elements/1.1/"
   xmlns:cc="http://creativecommons.org/ns#"
   xmlns:rdf="http://www.w3.org/1999/02/22-rdf-syntax-ns#"
   xmlns:svg="http://www.w3.org/2000/svg"
   xmlns="http://www.w3.org/2000/svg"
   xmlns:xlink="http://www.w3.org/1999/xlink"
   xmlns:sodipodi="http://sodipodi.sourceforge.net/DTD/sodipodi-0.dtd"
   xmlns:inkscape="http://www.inkscape.org/namespaces/inkscape"
   width="48"
   height="48"
   version="1.1"
   id="svg8"
   sodipodi:docname="org.xfce.thunar.svg"
   inkscape:version="0.92.4 (5da689c313, 2019-01-14)"
   inkscape:export-filename="/home/ochosi/Nerdstuff/xfce/thunar/icons/48x48/org.xfce.thunar.png"
   inkscape:export-xdpi="96"
   inkscape:export-ydpi="96">
  <metadata
     id="metadata14">
    <rdf:RDF>
      <cc:Work
         rdf:about="">
        <dc:format>image/svg+xml</dc:format>
        <dc:type
           rdf:resource="http://purl.org/dc/dcmitype/StillImage" />
        <dc:title></dc:title>
      </cc:Work>
    </rdf:RDF>
  </metadata>
  <defs
     id="defs12">
    <linearGradient
       inkscape:collect="always"
       id="linearGradient2415">
      <stop
         style="stop-color:#eeeeec;stop-opacity:1;"
         offset="0"
         id="stop2417" />
      <stop
         style="stop-color:#eeeeec;stop-opacity:0;"
         offset="1"
         id="stop2419" />
    </linearGradient>
    <linearGradient
       id="linearGradient2970">
      <stop
         style="stop-color:#fcaf3e;stop-opacity:1;"
         offset="0"
         id="stop2972" />
      <stop
         style="stop-color:#fcaf3e;stop-opacity:0;"
         offset="1"
         id="stop2974" />
    </linearGradient>
    <linearGradient
       id="linearGradient2396">
      <stop
         style="stop-color:#e1e2df;stop-opacity:1;"
         offset="0"
         id="stop2398" />
      <stop
         style="stop-color:#888a85;stop-opacity:1"
         offset="1"
         id="stop2400" />
    </linearGradient>
    <linearGradient
       id="linearGradient4114"
       inkscape:collect="always">
      <stop
         id="stop4116"
         offset="0"
         style="stop-color:#000000;stop-opacity:1;" />
      <stop
         id="stop4118"
         offset="1"
         style="stop-color:#000000;stop-opacity:0;" />
    </linearGradient>
    <linearGradient
       inkscape:collect="always"
       xlink:href="#linearGradient2415"
       id="linearGradient1275"
       gradientUnits="userSpaceOnUse"
       gradientTransform="matrix(0.79356749,0.04132263,-0.04278223,0.76649288,5.6966536,5.512212)"
       x1="23.906006"
       y1="6.0466475"
       x2="24.746471"
       y2="21.63644" />
    <linearGradient
       inkscape:collect="always"
       xlink:href="#linearGradient2415"
       id="linearGradient1277"
       gradientUnits="userSpaceOnUse"
       gradientTransform="matrix(-0.79089169,-0.01015506,-0.04647258,0.70928756,44.13532,6.4752965)"
       x1="12.254768"
       y1="14.820889"
       x2="20.264099"
       y2="8.1485271" />
    <linearGradient
       inkscape:collect="always"
       xlink:href="#linearGradient2415"
       id="linearGradient1279"
       gradientUnits="userSpaceOnUse"
       gradientTransform="matrix(0.79089169,-0.01015506,0.04647258,0.70928756,4.7575526,6.5048715)"
       x1="12.900058"
       y1="12.908146"
       x2="18.573477"
       y2="9.7130737" />
    <linearGradient
       xlink:href="#linearGradient1220"
       id="linearGradient1222"
       x1="51.999992"
       y1="89.643501"
       x2="76.094429"
       y2="89.643501"
       gradientUnits="userSpaceOnUse"
       gradientTransform="translate(-6.2595495,-53.250217)" />
    <linearGradient
       id="linearGradient1220">
      <stop
         style="stop-color:#79503c;stop-opacity:1"
         offset="0"
         id="stop1215" />
      <stop
         id="stop1224"
         offset="0.51465631"
         style="stop-color:#ad7702;stop-opacity:1" />
      <stop
         style="stop-color:#79503c;stop-opacity:1"
         offset="1"
         id="stop1218" />
    </linearGradient>
    <linearGradient
       gradientUnits="userSpaceOnUse"
       y2="89.643501"
       x2="76.094429"
       y1="89.643501"
       x1="51.999992"
       id="linearGradient1222-1"
       xlink:href="#linearGradient1220"
       gradientTransform="matrix(0.38970414,0,0,0.3725597,-0.95946209,0.73553403)" />
    <linearGradient
       gradientUnits="userSpaceOnUse"
       y2="81.370674"
       x2="76.077408"
       y1="81.370674"
       x1="52"
       id="linearGradient1071"
       xlink:href="#linearGradient1089"
       gradientTransform="matrix(0.3899918,0,0,0.36397441,-0.97456973,3.7858815)" />
    <linearGradient
       id="linearGradient1089">
      <stop
         style="stop-color:#c02700;stop-opacity:1"
         offset="0"
         id="stop1083" />
      <stop
         id="stop1085"
         offset="0.50248575"
         style="stop-color:#e6461d;stop-opacity:1" />
      <stop
         style="stop-color:#c02700;stop-opacity:1"
         offset="1"
         id="stop1087" />
    </linearGradient>
    <linearGradient
       gradientUnits="userSpaceOnUse"
       y2="81.370674"
       x2="76.077408"
       y1="81.370674"
       x1="52"
       id="linearGradient1097"
       xlink:href="#linearGradient1095"
       gradientTransform="matrix(0.3899918,0,0,0.36397441,-0.97456973,3.7858815)" />
    <linearGradient
       id="linearGradient1095">
      <stop
         id="stop1091"
         offset="0"
         style="stop-color:#c02700;stop-opacity:1;" />
      <stop
         id="stop1093"
         offset="1"
         style="stop-color:#c02700;stop-opacity:1" />
    </linearGradient>
    <linearGradient
       gradientUnits="userSpaceOnUse"
       y2="86.870674"
       x2="76.077408"
       y1="86.870674"
       x1="52"
       id="linearGradient1081"
       xlink:href="#linearGradient1089"
       gradientTransform="matrix(0.3899918,0,0,0.36769224,-0.974569,3.3640087)" />
    <linearGradient
       gradientUnits="userSpaceOnUse"
       y2="83.241028"
       x2="85.771179"
       y1="96.206978"
       x1="41.101963"
       id="linearGradient1177"
       xlink:href="#linearGradient1185"
       gradientTransform="translate(-24.907937,-57.871601)" />
    <linearGradient
       id="linearGradient1185">
      <stop
         id="stop1179"
         offset="0"
         style="stop-color:#e6461d;stop-opacity:1" />
      <stop
         style="stop-color:#c02700;stop-opacity:1;"
         offset="0.26479611"
         id="stop1189" />
      <stop
         style="stop-color:#c02700;stop-opacity:1"
         offset="0.80811173"
         id="stop1187" />
      <stop
         style="stop-color:#e6461d;stop-opacity:1"
         offset="0.87515253"
         id="stop1181" />
      <stop
         id="stop1183"
         offset="1"
         style="stop-color:#c02700;stop-opacity:1" />
    </linearGradient>
    <linearGradient
       xlink:href="#linearGradient4114"
       id="linearGradient1221"
       gradientUnits="userSpaceOnUse"
       x1="67.620171"
       y1="86.940636"
       x2="67.185326"
       y2="88.324181"
       gradientTransform="matrix(0.41649112,0,0,0.41649112,-2.6552142,-0.484625)" />
    <linearGradient
       inkscape:collect="always"
       xlink:href="#linearGradient1046-5"
       id="linearGradient1050"
       x1="65.96611"
       y1="60.927975"
       x2="66.508476"
       y2="70.690681"
       gradientUnits="userSpaceOnUse"
       gradientTransform="matrix(0.41666681,0,0,0.41666681,-2.666675,-2.416677)" />
    <linearGradient
       inkscape:collect="always"
       id="linearGradient1046-5">
      <stop
         style="stop-color:#2e1e17;stop-opacity:1;"
         offset="0"
         id="stop1042" />
      <stop
         id="stop1057"
         offset="0.52789009"
         style="stop-color:#2e1e17;stop-opacity:0.51372549;" />
      <stop
         style="stop-color:#2e1e17;stop-opacity:0;"
         offset="1"
         id="stop1044" />
    </linearGradient>
    <linearGradient
       gradientTransform="matrix(-1,0,0,1,132.94163,-84.738896)"
       xlink:href="#linearGradient4114"
       id="linearGradient1063-3"
       x1="58.330563"
       y1="98.761681"
       x2="53.73632"
       y2="98.438408"
       gradientUnits="userSpaceOnUse" />
    <linearGradient
       gradientUnits="userSpaceOnUse"
       y2="96.45739"
       x2="49.692238"
       y1="96.319893"
       x1="53.703209"
       id="linearGradient1063"
       xlink:href="#linearGradient4114"
       gradientTransform="translate(0.98154217,-68.738789)" />
    <linearGradient
       gradientUnits="userSpaceOnUse"
       y2="83.241028"
       x2="85.771179"
       y1="96.206978"
       x1="41.101963"
       id="linearGradient1177-9"
       xlink:href="#linearGradient1185"
       gradientTransform="translate(0.98154217,-68.738789)" />
    <linearGradient
       gradientUnits="userSpaceOnUse"
       y2="85.574959"
       x2="81.084084"
       y1="84.150307"
       x1="80.177971"
       id="linearGradient1169"
       xlink:href="#linearGradient1167"
       gradientTransform="translate(0.98154217,-68.738789)" />
    <linearGradient
       id="linearGradient1167">
      <stop
         id="stop1161"
         offset="0"
         style="stop-color:#c02700;stop-opacity:1" />
      <stop
         style="stop-color:#e6461d;stop-opacity:1"
         offset="1"
         id="stop1163" />
    </linearGradient>
  </defs>
  <sodipodi:namedview
     pagecolor="#ffffff"
     bordercolor="#666666"
     borderopacity="1"
     objecttolerance="10"
     gridtolerance="10"
     guidetolerance="10"
     inkscape:pageopacity="0"
     inkscape:pageshadow="2"
     inkscape:window-width="2560"
     inkscape:window-height="1387"
     id="namedview10"
     showgrid="true"
     inkscape:zoom="9.386052"
     inkscape:cx="3.9378253"
     inkscape:cy="18.267574"
     inkscape:window-x="0"
     inkscape:window-y="29"
     inkscape:window-maximized="1"
     inkscape:current-layer="svg8"
     inkscape:lockguides="false"
     showguides="true"
     inkscape:guide-bbox="true"
     inkscape:pagecheckerboard="false"
     inkscape:snap-global="false"
     inkscape:document-rotation="0">
    <inkscape:grid
       type="xygrid"
       id="grid821"
       empspacing="4" />
  </sodipodi:namedview>
  <g
     id="g1105"
     transform="matrix(0.41911618,0,0,0.40591193,-3.3448011,27.509891)"
     style="stroke-width:2.42447042">
    <path
       inkscape:connector-curvature="0"
       d="m 77.021244,15.95863 c -2.039702,4.870276 10.082883,1.008375 8.590524,-1.162793 -2.027019,-0.429446 -5.879029,0.06472 -8.590524,1.162793 z"
       style="fill:url(#linearGradient1169);fill-opacity:1;stroke:none;stroke-width:2.42447042px;stroke-linecap:butt;stroke-linejoin:miter;stroke-opacity:1"
       id="path1071" />
    <path
       inkscape:connector-curvature="0"
       id="path1229-4"
       d="m 76.532895,17.047114 c 5.879888,-3.862121 10.469038,-1.5 10.469038,-1.5 0,0 -26.398548,17.754581 -49.379518,17.224251 l 3.889087,-7.95496 C 66.260239,25.169958 76.252565,10.327759 76.252565,10.327759 81.217386,8.5005557 86.971573,7.3332187 88.230487,15.25606 l -3.98461,2.005151 1.07913,-1.350355 c -1.798672,0.56937 -7.482406,3.598008 -8.792112,1.136258 z"
       style="fill:url(#linearGradient1177-9);fill-opacity:1;fill-rule:evenodd;stroke:#c02700;stroke-width:2.42447042px;stroke-linecap:butt;stroke-linejoin:miter;stroke-opacity:1" />
    <path
       inkscape:connector-curvature="0"
       id="rect1053"
       style="opacity:0.5;fill:url(#linearGradient1063);fill-opacity:1;stroke:none;stroke-width:9.6978817"
       d="m 49.890903,23.863142 0.699969,8.026203 5.730885,-1.43228 -0.314626,-7.674392 z" />
    <path
       inkscape:connector-curvature="0"
       d="M 79.418243,8.7796687 79.608258,20.481054 74.99482,23.321729 75.798271,9.8929497 Z"
       style="opacity:0.5;fill:url(#linearGradient1063-3);fill-opacity:1;stroke:none;stroke-width:9.6978817"
       id="rect1053-5" />
  </g>
  <rect
     ry="3.0667698"
     rx="3.5976148"
     y="23.17469"
     x="20.174688"
     height="21.650623"
     width="7.6506238"
     id="rect1245"
     style="opacity:1;fill:#603f2f;fill-opacity:1;fill-rule:nonzero;stroke:#603f2f;stroke-width:0.3493765;stroke-linecap:round;stroke-linejoin:round;stroke-miterlimit:4;stroke-dasharray:none;stroke-dashoffset:0;stroke-opacity:1" />
  <rect
     ry="2.6103148"
     style="opacity:1;fill:#485e6b;fill-opacity:1;stroke:#263742;stroke-width:1;stroke-linecap:butt;stroke-miterlimit:4;stroke-dasharray:none;stroke-opacity:1"
     id="rect1185"
     width="35"
     height="18"
     x="6.5"
     y="8.5" />
  <path
     style="opacity:1;fill:url(#linearGradient1222-1);fill-opacity:1;fill-rule:nonzero;stroke:#603f2f;stroke-width:0.99999994;stroke-linecap:round;stroke-linejoin:round;stroke-miterlimit:4;stroke-dasharray:none;stroke-dashoffset:0;stroke-opacity:1"
     d="m 23.698288,24.5 h 0.640229 C 26.643978,24.5 28.5,24.890409 28.5,26.069593 l -0.0368,16.19505 C 28.460409,43.443824 26.607176,44.5 24.301715,44.5 h -0.640229 c -2.305462,0 -4.164163,-1.056176 -4.161483,-2.235357 l 0.0368,-16.19505 C 19.536804,24.890409 21.392825,24.5 23.698288,24.5 Z"
     id="rect1178-8"
     inkscape:connector-curvature="0"
     sodipodi:nodetypes="csccssscsc" />
  <path
     style="fill:url(#linearGradient1081);fill-opacity:1;fill-rule:evenodd;stroke:#c02700;stroke-width:1px;stroke-linecap:butt;stroke-linejoin:miter;stroke-opacity:1"
     d="m 19.5,36.226502 9,-4.78318 v 2.941538 l -9,4.78318 z"
     id="path1189-2"
     inkscape:connector-curvature="0" />
  <rect
     ry="2.3927879"
     style="opacity:1;fill:#a7b0b7;fill-opacity:1;stroke:#758087;stroke-width:0.99999994;stroke-linecap:butt;stroke-miterlimit:4;stroke-dasharray:none;stroke-opacity:1"
     id="rect1243"
     width="35"
     height="18"
     x="6.5"
     y="4.5" />
  <path
     style="fill:#485e6b;fill-opacity:1;fill-rule:evenodd;stroke:none;stroke-width:0.36607143px;stroke-linecap:butt;stroke-linejoin:miter;stroke-opacity:1"
     d="m 30.944196,23 c 0,0 0,-0.793046 0,-2.928572 C 32.109029,21.68925 34.032924,23 34.032924,23 Z"
     id="path1227"
     inkscape:connector-curvature="0"
     sodipodi:nodetypes="cccc" />
  <path
     style="fill:#263742;fill-opacity:1;fill-rule:evenodd;stroke:none;stroke-width:0.52901px;stroke-linecap:butt;stroke-linejoin:miter;stroke-opacity:1"
     d="m 13,26 3,-3 v 3 z"
     id="path1251"
     inkscape:connector-curvature="0"
     sodipodi:nodetypes="cccc" />
  <path
     style="fill:url(#linearGradient1277);fill-opacity:1;fill-rule:evenodd;stroke:none;stroke-width:0.14642857;stroke-linecap:butt;stroke-linejoin:miter;stroke-miterlimit:4;stroke-dasharray:none;stroke-opacity:1"
     d="m 26.597826,9.4889689 c 1.013759,1.3293821 3.540616,2.7353721 4.793543,3.1007401 0.02171,0.0064 0.05323,-0.0047 0.07415,9.88e-4 0.0053,-2.66e-4 0.01937,6.23e-4 0.02471,3.18e-4 0.316095,-0.01851 0.643875,-0.130867 1.038017,-0.363798 1.154505,-0.6823 0.685304,-0.500628 1.945168,-0.995483 0.01314,-0.0051 0.03723,-0.01684 0.05089,-0.02153 0.790908,-0.254415 2.373549,0.234955 2.650379,0.32242 -0.268206,0.03406 -1.40004,0.221704 -2.187969,0.925814 -0.005,0.0045 -0.02105,0.01744 -0.02617,0.02185 -0.0052,0.0043 -0.02079,0.01756 -0.02617,0.02185 -0.230522,0.177453 -0.584349,0.306268 -0.99004,0.386599 0.611072,0.04596 1.248161,0.114978 1.914729,0.224239 1.24431,0.203961 2.014145,0.646715 2.368396,1.228339 0.354251,0.581624 0.237475,1.293784 -0.239758,1.771632 -1.384967,1.386752 -5.089112,0.675361 -5.073961,-0.708481 7.33e-4,-0.02355 0.0029,-0.06473 0.0058,-0.08866 0.0044,-0.03003 0.02405,-0.07991 0.03199,-0.110508 0.0087,-0.03071 0.01966,-0.07927 0.03199,-0.110509 0.0052,-0.01254 0.02178,-0.03139 0.0276,-0.04401 0.735167,-1.590009 2.516456,-0.631542 3.11123,0.08431 -0.639333,-0.383747 -1.529981,-0.457502 -1.842035,-0.201121 -0.0059,0.0051 -0.02072,0.01643 -0.02617,0.02185 -0.0079,0.0083 -0.02083,0.03511 -0.0276,0.04401 -0.0018,0.0031 -0.02427,0.01868 -0.02617,0.02185 -0.0018,0.0033 1.91e-4,0.01887 -0.0015,0.02217 -0.0015,0.0033 -7e-5,0.01874 -0.0015,0.02217 -0.0037,0.01046 -0.02508,0.03295 -0.0276,0.04401 -7.32e-4,0.0037 -7.32e-4,0.01835 -0.0015,0.02217 -3.66e-4,0.0039 -0.0011,0.01822 -0.0015,0.02217 -1.46e-4,0.004 -0.0015,0.01808 -0.0015,0.02217 -0.0011,1.143187 2.974938,1.157902 3.230452,0.152398 0.06208,-0.244292 0.05769,-0.454194 0.01596,-0.620944 -0.0048,-0.01761 -0.0145,-0.04998 -0.02035,-0.06681 -0.0062,-0.01659 -0.0131,-0.05096 -0.02035,-0.06681 -0.0051,-0.01041 -0.01633,-0.03456 -0.02182,-0.04465 -0.250807,-0.437301 -0.925198,-0.584818 -1.684972,-0.709356 -1.556616,-0.255149 -3.220147,-0.0059 -4.589814,-0.169851 -2.072148,-0.248021 -2.988263,-0.540848 -4.12179,-2.027288 z"
     id="path1271"
     inkscape:connector-curvature="0" />
  <path
     id="path1273"
     d="m 22.295042,9.5185439 c -1.013759,1.3293811 -3.540615,2.7353711 -4.793542,3.1007391 -0.0217,0.0064 -0.05323,-0.0047 -0.07415,9.88e-4 -0.0053,-2.66e-4 -0.01936,6.23e-4 -0.02472,3.18e-4 -0.316094,-0.01851 -0.643877,-0.130867 -1.038017,-0.363799 -1.154506,-0.6823 -0.685303,-0.500627 -1.94517,-0.995483 -0.01315,-0.0051 -0.03723,-0.01684 -0.05089,-0.02153 -0.790908,-0.254413 -2.37355,0.234956 -2.650377,0.322421 0.268203,0.03406 1.400039,0.221704 2.187966,0.925814 0.005,0.0045 0.02104,0.01744 0.02617,0.02185 0.0052,0.0043 0.0208,0.01756 0.02617,0.02185 0.230524,0.177453 0.584349,0.306268 0.99004,0.386599 -0.611071,0.04596 -1.248158,0.114978 -1.914726,0.224239 -1.244312,0.203962 -2.014147,0.646715 -2.368398,1.228339 -0.354251,0.581625 -0.237476,1.293785 0.239758,1.771633 1.384969,1.386753 5.089112,0.675362 5.073961,-0.708481 -8.05e-4,-0.02355 -0.0029,-0.06473 -0.0058,-0.08866 -0.0044,-0.03003 -0.02404,-0.07991 -0.03198,-0.110508 -0.0087,-0.03071 -0.01965,-0.07927 -0.03198,-0.110509 -0.0052,-0.01254 -0.02178,-0.03139 -0.02762,-0.04401 -0.735167,-1.59001 -2.516455,-0.631544 -3.111229,0.08432 0.639331,-0.383748 1.529979,-0.457503 1.842033,-0.201123 0.0059,0.0051 0.02072,0.01644 0.02617,0.02185 0.0079,0.0083 0.02084,0.03511 0.02762,0.04401 0.002,0.0031 0.02428,0.01868 0.02617,0.02185 0.0018,0.0033 -1.89e-4,0.01887 0.0014,0.02217 0.0015,0.0033 6.9e-5,0.01874 0.0014,0.02217 0.0037,0.01046 0.02507,0.03295 0.02762,0.04401 7.32e-4,0.0037 8.79e-4,0.01835 0.0014,0.02217 4.39e-4,0.0039 0.0012,0.01822 0.0014,0.02216 1.48e-4,0.004 0.0014,0.01808 0.0014,0.02217 10e-4,1.143188 -2.974936,1.157902 -3.230449,0.152398 -0.06208,-0.244292 -0.05769,-0.454195 -0.01595,-0.620945 0.0048,-0.01761 0.01448,-0.04997 0.02036,-0.06681 0.0062,-0.01659 0.01312,-0.05096 0.02036,-0.06681 0.005,-0.01041 0.01632,-0.03456 0.02181,-0.04465 0.250891,-0.437282 0.92528,-0.584799 1.685054,-0.709337 1.556594,-0.25515 3.220126,-0.0059 4.589794,-0.169851 2.072146,-0.248021 2.988261,-0.540848 4.121789,-2.027288 z"
     style="fill:url(#linearGradient1279);fill-opacity:1;fill-rule:evenodd;stroke:none;stroke-width:0.14642857;stroke-linecap:butt;stroke-linejoin:miter;stroke-miterlimit:4;stroke-dasharray:none;stroke-opacity:1"
     inkscape:connector-curvature="0" />
  <path
     style="fill:#e1e3e2;fill-opacity:1;fill-rule:evenodd;stroke:none;stroke-width:0.13673;stroke-linecap:butt;stroke-linejoin:miter;stroke-miterlimit:4;stroke-dasharray:none;stroke-opacity:1"
     d="m 24.297229,8 -0.349305,0.3784743 c -0.308139,0.3338722 -1.057836,0.9167631 -1.558979,1.8795057 -0.315939,0.606948 -0.421299,1.434747 -0.375386,2.357727 -0.848009,0.306827 -1.535975,0.762627 -1.97389,1.40115 -0.733435,1.069422 -1.062166,2.321776 -1.594103,3.130985 L 18,17.820957 l 0.707655,-0.02916 c 1.204243,-0.0505 2.505084,-0.0075 3.715164,-0.385135 0.314258,-0.09804 0.60312,-0.255726 0.89236,-0.44344 -0.344192,-0.282179 -0.558465,-0.570106 -0.691518,-0.797256 -0.0027,-0.0046 -0.370149,0.225095 -0.573819,0.28864 -0.886704,0.276654 -1.309848,0.01606 -2.308282,0.0504 0.403544,-0.81641 0.336337,-1.279401 0.815477,-1.978035 0.363779,-0.530427 1.240578,-0.859441 2.0271,-1.197087 0.78652,-0.337644 1.955922,-0.15556 2.103369,-0.113885 l -0.02528,-0.829131 c -0.194911,-0.05645 -0.415232,-0.102245 -0.659525,-0.118141 -0.732881,-0.04769 -1.144984,0.17102 -1.193031,0.198197 -0.02802,-0.71446 0.102132,-1.329926 0.350816,-1.807669 0.310749,-0.596976 1.038767,-1.0067438 1.127427,-1.0550258 0.349987,0.6689328 0.671015,0.8344158 0.90771,1.5385078 0.143494,0.426856 0.410243,1.06743 0.02997,2.584704 -0.236843,0.945022 -0.541674,1.174387 -0.853055,1.423934 l 0.577278,0.564145 c 0.18615,-0.159752 0.398368,-0.385957 0.569858,-0.665026 0.430444,-0.700472 0.400448,-1.328731 0.395091,-1.403583 0,0 0.811359,0.791112 1.144507,1.353313 0.432055,0.729102 0.590177,1.204015 0.991181,1.995293 -0.889849,-0.06971 -1.469256,0.19152 -2.422522,-0.18271 -0.257784,-0.1012 -0.79499,-0.516666 -1.433449,-1.222706 -0.638462,-0.706041 -0.954724,-1.141125 -1.12039,-1.601454 l -0.82128,0.247462 c 0.0096,0.0294 0.958696,2.148358 1.910597,2.701734 0.951901,0.553373 4.034392,0.944898 5.028705,1.009597 L 29.999994,18 29.470851,17.288534 c -0.553231,-0.743842 -0.977995,-1.697439 -1.640153,-2.814855 -0.39484,-0.666305 -1.045194,-1.18993 -1.860592,-1.600512 0,0 0.08587,-1.17905 -0.197317,-2.094089 C 25.469284,9.7983602 24.733672,9.2127021 24.482051,8.5135345 Z"
     id="path1269-6" />
  <path
     id="path1212"
     d="M 25.576701,32.902181 19.066886,31.299695 19,34.255604 29,38 28.9981,34.778019 v -0.685747 z"
     style="color:#000000;font-style:normal;font-variant:normal;font-weight:normal;font-stretch:normal;font-size:medium;line-height:normal;font-family:sans-serif;font-variant-ligatures:normal;font-variant-position:normal;font-variant-caps:normal;font-variant-numeric:normal;font-variant-alternates:normal;font-feature-settings:normal;text-indent:0;text-align:start;text-decoration:none;text-decoration-line:none;text-decoration-style:solid;text-decoration-color:#000000;letter-spacing:normal;word-spacing:normal;text-transform:none;writing-mode:lr-tb;direction:ltr;text-orientation:mixed;dominant-baseline:auto;baseline-shift:baseline;text-anchor:start;white-space:normal;shape-padding:0;clip-rule:nonzero;display:inline;overflow:visible;visibility:visible;opacity:0.2;isolation:auto;mix-blend-mode:normal;color-interpolation:sRGB;color-interpolation-filters:linearRGB;solid-color:#000000;solid-opacity:1;vector-effect:none;fill:url(#linearGradient1221);fill-opacity:1;fill-rule:evenodd;stroke:none;stroke-width:1px;stroke-linecap:butt;stroke-linejoin:miter;stroke-miterlimit:4;stroke-dasharray:none;stroke-dashoffset:0;stroke-opacity:1;color-rendering:auto;image-rendering:auto;shape-rendering:auto;text-rendering:auto;enable-background:accumulate"
     inkscape:connector-curvature="0" />
  <path
     style="fill:url(#linearGradient1071);fill-opacity:1;fill-rule:evenodd;stroke:url(#linearGradient1097);stroke-width:0.99999994px;stroke-linecap:butt;stroke-linejoin:miter;stroke-opacity:1"
     d="m 19.5,30.492504 9,2.908646 v 2.911795 l -9,-2.908646 z"
     id="path1187-1"
     inkscape:connector-curvature="0" />
  <path
     inkscape:connector-curvature="0"
     id="path1040"
     d="m 23.664765,24.041665 h 0.711366 c 2.561625,0 4.623872,0.443275 4.623872,1.782132 L 28.959113,28 c 0,0 -3.331893,-0.849474 -5.015611,-0.847458 C 22.259783,27.154542 19,28 19,28 l 0.04089,-2.176203 c 0,-1.338857 2.062248,-1.782132 4.623873,-1.782132 z"
     style="opacity:0.75499998;fill:url(#linearGradient1050);fill-opacity:1;fill-rule:nonzero;stroke:none;stroke-width:1;stroke-linecap:round;stroke-linejoin:round;stroke-miterlimit:4;stroke-dasharray:none;stroke-dashoffset:0;stroke-opacity:1"
     sodipodi:nodetypes="cscczccsc" />
  <path
     inkscape:connector-curvature="0"
     style="fill:#758087;fill-opacity:1;stroke:none;stroke-width:0.99999994px;stroke-linecap:butt;stroke-linejoin:miter;stroke-opacity:1"
     d="m 30.882166,19.936923 2.080363,4.72009 -2.080363,-1.550014 z"
     id="path1037" />
</svg>
